<svg id="comb_circle" xmlns="http://www.w3.org/2000/svg" viewBox="0 0 1256.31 1181.97"><path d="M487.6,79.47c24.6-5.57,54.14-10,88-12.89,9.78-.82,18.29-1.83,18.74-2.19s5.12-1,10.34-1.37,9.6-1,9.87-1.47-.91-.73-2.56-.64-9.42.46-17.19.73c-21.58,1-20.85.92-18.74,1.74,2.83,1.1-10.25,2.2-17.56,1.46-8.5-.82-31.55,2-56.33,7-5.39,1.09-9.6,2.1-9.42,2.28s3.75-.27,7.78-1.1c14.54-2.92,10.33-.73-5.86,3.11-9.05,2.11-17.28,4.3-18.28,4.67C472.7,82.4,477.54,81.85,487.6,79.47Z" transform="translate(-8.47 -49.01)"/><path d="M646.43,64.3l-11.88-.37c-11.43-.27-11.8-.27-8.69,1.1,2.65,1.19,7.5,1.55,26.61,1.64,23.77.28,32.83.92,33.83,2.47.28.46,6,1.65,12.53,2.56s14.08,2.38,16.55,3.11a73.65,73.65,0,0,0,9.78,1.92,32.15,32.15,0,0,1,7.23,1.37,102.39,102.39,0,0,0,10.42,2.29c25.88,4.75,79.19,21.21,88.79,27.52a54.21,54.21,0,0,0,10.06,4.48A83.35,83.35,0,0,1,852.17,117c2,1.1,8.42,4.12,14.18,6.68s15.36,6.86,21.3,9.69c11.71,5.58,12.07,5.67,11.07,4s9.23,4.29,14.72,8.41A85.16,85.16,0,0,0,923.5,152a45.29,45.29,0,0,1,7.77,4.75c1.28,1.1-1.74-.09-6.86-2.74s-10-5.49-11.06-6.49a6.55,6.55,0,0,0-3-1.74,16.9,16.9,0,0,1-4-1.37c-4.39-2.11-1.74-.37,16.27,10.33,9.06,5.39,17.74,10.61,19.21,11.61l2.74,1.74L941.79,165,939,161.86l2.75,1.74c1.55.91,8,5.49,14.44,10.24s12.17,8.5,12.62,8.5,2.65,1.19,4.76,2.56c10.6,7.23,7.4,4-9.42-9.41-7.32-5.76-13.81-10.52-14.45-10.52s-7.22-4.11-14.72-9.05-18.84-12-25.33-15.64-13.08-7.59-14.63-8.78c-2.65-1.92-11.61-6.21-40.14-19.29C788.53,81.85,708,62.92,637.75,61.19l-16-.37,12.34,1.74Z" transform="translate(-8.47 -49.01)"/><path d="M913.44,1126.1c-2.47,1.46-5.21,3.11-5.94,3.56-4.94,3.11-23.69,14.18-30.36,17.83-4.39,2.47-7.87,4.58-7.68,4.76s4.2-1.55,9-3.84a100.8,100.8,0,0,1,9.42-4.12c1.37,0,24-12.8,25.14-14.35a49.1,49.1,0,0,1,4.85-4.12C922.86,1122.26,919.47,1122.44,913.44,1126.1Z" transform="translate(-8.47 -49.01)"/><path d="M389.49,1166.61c-2-.83-3.39-1.19-3-.83a19.85,19.85,0,0,0,4.57,2.47c2.2,1,3.57,1.37,3,.82A25.88,25.88,0,0,0,389.49,1166.61Z" transform="translate(-8.47 -49.01)"/><path d="M489.43,75.09a1.85,1.85,0,0,0,1.74-.1c.37-.27-.18-.54-1.19-.45S488.7,74.81,489.43,75.09Z" transform="translate(-8.47 -49.01)"/><path d="M528.75,76A4.92,4.92,0,0,0,531,76c.55-.27.09-.46-1.19-.46S528.11,75.73,528.75,76Z" transform="translate(-8.47 -49.01)"/><path d="M711.63,76.27c-1.55,0-2.65.19-2.47.37,1,.82,6.31,1.37,5.85.55C714.74,76.64,713.19,76.27,711.63,76.27Z" transform="translate(-8.47 -49.01)"/><path d="M404.67,103.89c17.37-6.49,44.44-15.73,45.9-15.73,2.56,0,10.7-3.93,10.7-5.12,0-1.83-.55-1.65-16.46,3.29-23.23,7.23-49.1,16.64-57.24,20.85L384,109.1l4.21-.36C390.59,108.55,398,106.36,404.67,103.89Z" transform="translate(-8.47 -49.01)"/><path d="M731.93,105.08c2.2.36,2.74.27,1.83-.28-1.65-1-22.4-5-39.32-7.59-14.45-2.1-37.31-3.2-39.32-1.82-1.1.73-1.1,1.28-.09,3.1,1.1,2,2.1,2.38,10.52,3.3,17,1.92,24,2.19,25.78,1.18,1.65-1,1.56-1-.55-1.09a7.15,7.15,0,0,1-3.65-1c-1-.73.82-.82,6.4-.36,4.57.27,8.32,1.09,9.14,1.82s5,1.38,13.72,1.74C723.15,104.35,730.19,104.8,731.93,105.08Z" transform="translate(-8.47 -49.01)"/><path d="M809.56,133.88a54.72,54.72,0,0,1-8.68-4.3c-3.2-2.1-20.21-7.68-34.48-11.24-4.11-1.1-13.07-3.48-19.84-5.49s-14.63-3.93-17.37-4.39c-6-1.19-19.2-2.29-19.2-1.64s15.17,5.12,17.64,5.12a42.66,42.66,0,0,1,8.32,1.82,83.26,83.26,0,0,0,13.45,2.75,104.89,104.89,0,0,1,24.41,6.12c1.83.74,8,2.75,13.44,4.39A120.17,120.17,0,0,1,801,131.78c4.57,2.28,13.26,5.21,13.81,4.57C815.05,136.17,812.67,135,809.56,133.88Z" transform="translate(-8.47 -49.01)"/><path d="M883.26,161.22c1.56,1.28,9.33,5.85,17.29,10.15s21.12,12.25,29.44,17.74,15.36,9.6,15.73,9.24-.09-1-1-1.47-4.94-3.47-9.05-6.67-11.25-7.87-15.82-10.52A128,128,0,0,1,908,171.83c-7.4-6-44.25-26.06-47.91-26.06-.82,0-6.4-2.47-12.44-5.49-9.69-4.84-47.64-19.38-67.66-26-6.77-2.28-16.19-4.2-15.09-3.11.46.46,18.65,6,26.15,8,2.38.64,4,1.65,4.21,2.65.36,1.28,2,2,6.31,2.84,10.6,2.19,25.69,7.59,43.34,15.63C864.88,149.33,877.6,156.28,883.26,161.22Z" transform="translate(-8.47 -49.01)"/><path d="M355.2,124.74c1.19-.73,1.19-.92-.19-.92a2.55,2.55,0,0,0-2.1.92C352.18,125.93,353.37,125.93,355.2,124.74Z" transform="translate(-8.47 -49.01)"/><path d="M341.57,132.05a7.51,7.51,0,0,0,3.66-1.83c2.74-2.19,2.2-2.19-1.92,0C341.48,131.23,340.75,132,341.57,132.05Z" transform="translate(-8.47 -49.01)"/><path d="M811,131.23c-5-1.92-6.86-2.29-6.86-1.55,0,.54,11.25,4.2,11.61,3.84C816.06,133.33,813.86,132.33,811,131.23Z" transform="translate(-8.47 -49.01)"/><path d="M321.55,141.2c1.46,0,16.27-8,16.27-8.78s-2.19-.09-8.87,3.29C321.18,139.73,319.26,141.2,321.55,141.2Z" transform="translate(-8.47 -49.01)"/><path d="M1029.66,277c-1-1.56-2.29-3.75-2.93-4.85a37.4,37.4,0,0,0-6.31-6.77c-3.38-3-4.93-5.12-4.57-6,.73-1.92-15.73-18-30.63-29.81-19.93-15.82-40-28.9-72.15-47.09-7.22-4.12-14.81-8.6-16.91-10.06-4.76-3.29-20.49-12.26-31.37-17.92-9-4.67-10.79-6.31-3.56-3.2,7,3,6.12,2-2.2-2.29-4.84-2.56-9-4-11.15-4a26.66,26.66,0,0,1-7.78-2c-2.37-1-5.39-2.28-6.58-2.74-3.75-1.46-1.46-1.83,2.56-.36,4.57,1.55,4.12.09-.64-1.93-4.11-1.73-15.82-5.85-16.55-5.76-.27,0,1.19.92,3.29,1.92s3.93,2.56,4.21,3.39,2,2.28,4.11,3.29,3.48,2.1,3.3,2.47,4,2.74,9.41,5.39c29.54,14,56.15,29.17,69.5,39.41,2.1,1.65,6.76,5,10.42,7.59s14.45,10.61,24,18.11,23,17.37,29.81,22.13a544.3,544.3,0,0,1,45.26,35.75C1027.74,276.44,1030.67,278.63,1029.66,277Z" transform="translate(-8.47 -49.01)"/><path d="M909.32,169.54c1,.55,1.83.73,1.83.55s-.82-.91-1.83-1.46-1.82-.73-1.82-.55S908.32,169,909.32,169.54Z" transform="translate(-8.47 -49.01)"/><path d="M968.3,186.83l2.29,1.82c4,3.3,18.29,13,18.29,12.53,0-.82-14.54-11.43-17.74-13Z" transform="translate(-8.47 -49.01)"/><path d="M1049.87,297.65c1.37,1.19,1.37,1.1.36-.82-1.09-2.11-1.92-2.56-1.92-1.19A3.47,3.47,0,0,0,1049.87,297.65Z" transform="translate(-8.47 -49.01)"/><path d="M1133.35,376.11c2,4.11,3.93,7.4,4.21,7.13,1.1-1.1-13.72-29.9-15.45-29.9-.46,0,1,3.38,3.29,7.5S1131.25,371.9,1133.35,376.11Z" transform="translate(-8.47 -49.01)"/><path d="M1165.36,595.84c0,3.65.45,7.31,1,8,1.19,1.65.37-20.75-.82-25.14-.73-2.56-.82-2.38-1.28,2.28-.18,2.75-.09,5.76.37,6.59S1165.36,592.18,1165.36,595.84Z" transform="translate(-8.47 -49.01)"/><path d="M54.09,592.18a4.92,4.92,0,0,0,0-2.29c-.28-.55-.46-.09-.46,1.19S53.81,592.82,54.09,592.18Z" transform="translate(-8.47 -49.01)"/><path d="M45.12,730.53V726c.1-5.31-1.92-18-3.47-21.77-.55-1.46-1-6.76-1-11.88a116,116,0,0,0-1-15.27c-.55-3.3-1.28-10.7-1.65-16.46-.55-7.68-.73-9-.82-4.58-.18,9.33,2.47,57.61,3.38,62.18a47.91,47.91,0,0,0,2.75,8.23Z" transform="translate(-8.47 -49.01)"/><path d="M55.82,793.16c2.93,12,6.13,21,7.5,21,.46,0,1.46,2.28,2.47,5s1.92,5,2.29,5c.73,0-5.95-21.58-8.51-27.61-1.64-3.84-5.39-20.39-7.5-32.74-2-11.7-3.2-15.54-4.66-14.9-.73.27-1,1.55-.73,3.75.18,1.83-.46.27-1.56-3.48-1.73-6.21-3.56-10.24-3.56-7.59,0,2,4.48,27.25,5.94,33.84,1.65,7.22,3.48,9.14,2.75,2.74l-.46-3.84,1.46,3.2C52.07,779.36,54.09,786.4,55.82,793.16Z" transform="translate(-8.47 -49.01)"/><path d="M79.32,818.77c-4-10.34-7.59-19.39-7.86-20.12s-.55-.91-.55-.37c-.18,2.11,3.84,15.64,5.4,18.2A121.32,121.32,0,0,1,81.79,829c2.11,5.39,4.21,10.15,4.76,10.42.64.46.82.19.55-.64S83.35,829.1,79.32,818.77Z" transform="translate(-8.47 -49.01)"/><path d="M78.77,863.85c.37-.92.19-1.28-.36-.92s-1.83-1.28-2.93-3.93c-3.84-8.87-7.5-19.57-7.13-20.94.09-.82,1,.37,1.83,2.65l1.55,4.12L71.37,841c-.55-5.49-3.48-12.9-4.21-10.79-.36,1.09-1.83-1.92-4.2-9.24-2.47-7.5-4-10.88-4.94-10.88a3,3,0,0,1-2-.91c-.46-.55-.74-.55-.74.09,0,1.83,9.06,27.61,13.9,39.59s14.36,31.55,15,30.91c.27-.18-1-3.57-2.74-7.41S78.5,864.67,78.77,863.85Z" transform="translate(-8.47 -49.01)"/><path d="M81.88,833.86c-1.46-2.93-1.83-3.21-1.83-1.56-.18,4.21,16.56,46.91,17.84,45.63.27-.28-1.1-4-2.93-8.5-5.4-12.9-11.34-29-11.34-30.55A20,20,0,0,0,81.88,833.86Z" transform="translate(-8.47 -49.01)"/><path d="M72.74,848.67c-.09,1.46,4.66,13.17,5.12,12.71.18-.18-.91-3.38-2.38-7S72.74,848.12,72.74,848.67Z" transform="translate(-8.47 -49.01)"/><path d="M236.33,1086.78c-5.77-4.85-14-12.16-18.38-16.37s-8.23-7.5-8.69-7.5,2.93,3.75,7.41,8.32c7.68,7.78,30.63,27.34,32,27.34S246.66,1095.37,236.33,1086.78Z" transform="translate(-8.47 -49.01)"/><path d="M246.48,1094c.54,0,.64-.45.36-.91a1.85,1.85,0,0,0-1.46-.92c-.55,0-.64.37-.37.92A2.14,2.14,0,0,0,246.48,1094Z" transform="translate(-8.47 -49.01)"/><path d="M244.56,1098a5.29,5.29,0,0,0,1.64,1.55c1.37,1.19,1.46,1.1.28-.37S244.56,1097.29,244.56,1098Z" transform="translate(-8.47 -49.01)"/><path d="M926.7,1137.07a33,33,0,0,0-4.85,3c-5.39,3.75-6.67,5-2.65,2.74C922.22,1141.09,927.52,1137.07,926.7,1137.07Z" transform="translate(-8.47 -49.01)"/><path d="M865,1173.65a31.9,31.9,0,0,0-6,2.65c-2.74,1.46-4.57,2.65-4.11,2.65a29.21,29.21,0,0,0,5.94-2.65C863.6,1174.84,865.52,1173.65,865,1173.65Z" transform="translate(-8.47 -49.01)"/><path d="M563.77,1225.68c-4-1-21.3-.92-18.83.09,1,.36,6.4.64,11.88.64C563.86,1226.41,566,1226.22,563.77,1225.68Z" transform="translate(-8.47 -49.01)"/><path d="M1259.58,912.12c-21.89-37-43.69-56.15-68.23-59.69-6.58-1-16.59,1.08-24.74,5a41.32,41.32,0,0,0-6,3.64c6.14-15.23,10.88-30.09,13-41.4,6-32.18,8.41-43.25,10.51-49.65a53.12,53.12,0,0,0,2.29-8.69,4.74,4.74,0,0,1,1.74-3.11c1-.82,1.92-3.29,2.28-5.85a40.5,40.5,0,0,1,1.65-7c.73-2,.73-2.83-.09-3.29-1.47-1,1.09-19.29,2.92-20.67,2.29-1.64,3.75-17.55,3.93-43,.1-13.08.46-33.29.83-44.81.55-17.37.45-22.4-.73-28.8-.83-4.3-1.74-10.88-2-14.63a89,89,0,0,0-2.19-13.26l-1.74-6.4-.09,6a36.68,36.68,0,0,0,1.19,10.06c1.46,4.48,2.74,20.3,1.55,18.38-.82-1.37-.55,19.39.46,45.54.82,19.29.46,49.38-.55,52.85-.46,1.37-.82,1.83-.91,1.1s-.73.27-1.37,2.28c-1.1,3.57-1.19,3.3-1.83-7.13-.37-5.85-.28-20.66.27-32.92,1-23.22.18-60.53-1.46-64.65-1.1-2.92-3.2-18.37-3.11-23.5,0-4.29.91-7.77,1.83-7.22,2.38,1.46-.28-28-3-33.28a33,33,0,0,1-1.83-8.23c-.36-3.29-1.64-10.61-2.83-16.37s-2-10.61-1.83-10.79a45.35,45.35,0,0,1,2.83,7.5c1.47,4.39,2.93,8,3.3,8.32.73.46-2.93-13.81-4.67-18.38-.55-1.56-1.64-5.67-2.38-9.15-.82-4.29-3.2-10.33-7.22-18.28-5.85-11.71-7.22-13.44-4.57-5.95,1.46,4.12,1.1,6.4-.37,2.66-.45-1.19-2.83-6.77-5.39-12.26s-6-14.08-7.87-19-4.2-11.06-5.12-13.53-1.37-4.48-.91-4.48c1,0,4.48,7.5,5.21,11.25.28,1.55,1,2.37,1.65,2.1,1.09-.37,7,11.15,12.8,25.24,1.37,3.47,2.74,6.21,3,6.21s.09-1.18-1.28-6.85c-.37-1.38-.1-1.28.91.45.82,1.28,1.37,1.92,1.46,1.56,0-1.37-7.59-18.47-9.14-20.48a63,63,0,0,1-4.57-9c-2.47-5.76-2.84-7.13-1.74-7.77s.64-1.55-1.74-4.75a64.58,64.58,0,0,1-4.48-7.14c-16-32-39.32-72.14-43.52-74.7-1.1-.73-.64.09,4.93,8.41a119.18,119.18,0,0,1,6.31,10.52,68.13,68.13,0,0,0,5,8.23c2.84,3.84,11.34,18.83,12.62,22.22,1.19,3.1-.18,1.37-4-5.12-2.1-3.57-8.87-14-14.82-23.05-18.92-28.34-19.84-29.9-19.84-31.18,0-3.38-14.17-22.13-33.37-44.26-8.14-9.32-15.91-18.56-17.38-20.57s-5.39-6.95-8.68-11-6.59-8.14-7.32-9.15c-2.92-3.84,2.29.74,13.26,11.8,11.43,11.52,26.61,30.17,37.49,46.09,3.57,5.12,6.86,9.32,7.32,9.32,1.18,0,6.31,6.68,10.51,13.54,1.56,2.56,3.2,4.57,3.57,4.29s3,3.2,5.85,7.59,6,8.51,7.13,9.15c1.56,1,1-.55-2.83-7.78-4.3-7.86-8.6-15.36-12.9-22-1.28-2.11-3.29-2.93-2.1-.92,1.74,3.2-3.29-2.83-11.79-14.26-5.31-6.95-10.52-14.54-11.62-16.92-4-8.14-13.44-18.1-34.65-37l-3.2-2.84,3,3.57c1.65,1.92,2.75,3.66,2.56,3.93-.54.55-10.6-10.15-12.52-13.26a72.83,72.83,0,0,0-8.78-9.05c-6.86-6.31-9-9.69-3.48-5.67,3,2.2-1.82-2.56-17.55-17.1-5.95-5.48-11.52-10.42-12.26-10.79s.55,1.1,3,3.29,4.3,4.39,4.3,4.85,1.1,2,2.56,3.47l2.47,2.75-2.29-1.1c-1.28-.64.37,1.28,3.66,4.21,9.69,8.59,17,16.09,15.36,15.45-.91-.27-1.64-.18-1.64.09a6.84,6.84,0,0,0,1.64,2.47c3.75,4.3-4.94-2.83-15.63-12.89-6.13-5.76-13.54-12.16-16.55-14.18s-8.51-6.21-12.35-9.32c-16.92-13.44-27.16-20.94-32.83-24a61.74,61.74,0,0,1-9-5.85c-3.11-2.65-17-11.43-22.31-14.08l-3.2-1.65,2.74,2.47c2.47,2.19,2.56,2.29.46,1.28-5.94-2.84-15.27-8.6-16.55-10.24-5-6.22-36.85-21.31-63-29.72-64.19-20.76-107.53-31-138-32.64-10.34-.55-17.65-1.92-15.09-2.93.64-.18,5.94.27,11.89,1.1,12.71,1.64,15.72,1.73,14.44.45-.73-.73-21-3.38-39.23-5-18.92-1.74-65.83-3.3-75.89-2.66-21.31,1.56-31.64,3.11-33.65,5.12-1.74,1.65-24.87,4.94-26.43,3.75-2-1.64-23.86,2-58.61,9.79-14.08,3.2-39.14,12.89-69.22,26.79-3.75,1.74-10.33,4.48-14.63,6.22C375.5,123,344.13,138.09,331,145c-2.7,1.39-10.51,6.06-18.27,10.83-4.48-3.17-8.56-5.7-8.89-5.15-3,4.62-10.78,14.79-14.37,19-4.75,3.21-14.72,10.49-23.34,17,21.55-29.17,38-51.57,38.1-51.89.19-.59-4.32-4.52-10-8.64l-10.3-7.56-7.95,10.8c-4.42,5.89-8.45,10.7-8.94,10.8s-21.3,27.68-46,61.55-45.55,62.43-46.43,63.51c-6.19,8.05,11.68-20.32,25.13-39.85,13.64-19.74,46.43-63.13,68-90l19.14-23.86L282,104.48c-16-23.17-33.67-39.95-51.24-48.69-13.26-6.58-26.12-8.34-38.39-5.4-16,3.83-28.66,15.22-44.57,40.15-5.89,9.13-17,26.41-24.73,38.29C75.27,202.45,33,274.31,18.92,306,10,326.34,7,338.22,9.1,346c2.79,10.3,26.09,35,76.58,80.64-1.75,4.39-4.59,11.28-9,22-7.22,17.37-16,44.62-16.37,50.56a65.33,65.33,0,0,1-3.11,13.72c-5.57,16.73-12.89,67.76-12.89,89.79,0,9.15,1.74,7.87,2-1.37.09-3.84.28-5.48.46-3.56s.73,3.2,1.28,2.92.82,5.12.92,13.9c.18,27.07,1.28,25.61,2-2.47.27-14.81,1-30.9,1.55-35.66,1.46-13.81,3.75-26.79,5.12-28.8a9,9,0,0,0,1.28-4.57c0-3.66,4.21-27.07,6.68-37.49,1.92-8,2-8.14,2.56-4.58.27,2,.64,3,.73,2.2.18-2.93,7.68-29,12.62-44.17,2.91-9.05,6.2-18.25,9.76-27.37,25.09,22.53,56.45,49.88,94.82,82.77,170.76,146,511.24,424.26,731,597.16-15.87,11.08-28.43,19-30.8,19-2.83,0-19.11,8.78-30.26,16.27-10.15,6.86-17,10-37.22,17.1-4.76,1.65-13.44,5.12-19.2,7.78s-17.29,7-25.52,9.78c-13,4.39-15.81,5-21.39,4.94a63.55,63.55,0,0,0-22.5,3.66c-7.22,2.65-38,8-52.21,9.14-8.59.64-12.62,1.37-13.35,2.29s-4.39,1.55-11,2.1c-5.49.55-14.08,1.37-19.11,1.83-8.87.82-31.46,1.92-25.33,1.28a10.3,10.3,0,0,0,4.84-2.2c1.74-1.73,1.56-1.73-13.53-1.73-8.5,0-23.77-.64-34.11-1.47s-25.32-1.73-33.37-2.19c-33.38-1.92-95.74-18.38-125.27-33.1-7-3.48-13.17-6.77-13.72-7.23s2.56.37,6.86,1.92,8.59,3,9.6,3.3c2.93.73-8.14-4.67-17.19-8.33-4.67-1.92-10.52-4.57-13.17-6s-9.87-4.85-16.28-7.59A228.55,228.55,0,0,1,323.74,1120c-15.91-11.25-18.93-13.17-24.5-15.91a72.41,72.41,0,0,1-9-5.49,48.84,48.84,0,0,0-8.69-5.12,79.51,79.51,0,0,1-10.43-5.76c-6.4-4.39-25.14-20-25.6-21.39-.36-1.1-.27-1,10.43,6.49,3.74,2.65,6.85,4.66,6.85,4.39s-4-3.66-8.87-7.59-14.9-13-22.22-20.12-15.91-14.72-19.11-16.82c-7.4-5-22.13-20.58-25.23-26.7-1.47-3-6.59-9.15-13.72-16.37C162.9,978.51,154,966.81,154.3,964.07c.28-2-11.52-19.94-13-19.76-.64.1-3.57-3.29-6.49-7.58-5.31-7.78-7.78-12.35-28.9-53.5-6.22-12.07-11.24-21.49-11.34-20.94s1.28,3.75,2.84,7,2.83,7.41,2.83,9.06,1.74,6.12,4,10.51c2.19,4,4,7.87,4,8.51,0,2.1,10.33,21.67,16.28,30.9,7.68,11.8,25.69,38.86,33.92,50.93,3.47,5,6.13,9.51,5.85,9.88s.73,2.29,2.11,4.12c3.65,4.75,25.78,28.25,42,44.34,7.59,7.5,11.7,12,9.14,10-7.22-5.76-37.4-36.12-48.65-49-13.62-15.45-23.5-28.71-35.84-47.92-5.58-8.68-10.15-16-10.15-16.18,0-.73-14.54-25.06-18.29-30.63-4.11-6.13-10.06-16.83-10.06-17.93,0-.45.46-.09,1,.74s1.28,1.64,1.83,1.64-.18-2.1-1.56-4.66-2.56-4.48-2.74-4.21,0,1.37.55,2.47c1.19,2.2.73,3.29-.92,2.29C91.39,883.23,87.83,876,85,868c-2.56-7.31-6.76-16.46-6.86-14.9,0,2.65,2.66,9.6,8.42,21.94,5.3,11.25,14.44,33.47,14.44,35.12,0,.18-.91-.37-2-1.38-1.92-1.73-1.92-1.73-1.28,0,.37,1,3.75,6.5,7.5,12.35,10.15,15.64,19.84,32.28,20.12,34.65.09,1.1,3.56,7.5,7.77,14.18s10.15,16.37,13.35,21.67c6.4,10.7,19.93,28.07,24.14,31.27,1.55,1.19,4.66,3.75,7,5.76s3.84,3,3.29,2.29c-4.2-5.85-7.31-9.05-8.87-9.33-3.11-.46-18-19.38-25.23-32.28l-2.11-3.65,3.39,3.65c5.85,6.4,16.36,18.75,20.48,24.05,6.77,8.78,24.87,28.53,26.06,28.53,1.74,0,13.62,12.62,12.89,13.72-.27.45-3.2-1.37-6.49-4.12s-6.31-5-6.86-5-4-2.92-7.77-6.58c-6.77-6.49-9.05-7.32-4.3-1.46,8.14,10,17,18.92,18.66,18.74.91-.09,1.73-.73,1.73-1.37,0-.82,1.37-.09,3.48,1.74,1.83,1.74,8.78,7.31,15.27,12.34s14.81,11.89,18.29,15.18a138.39,138.39,0,0,0,12.07,9.69c6.4,4.39,14.54,11.16,13.26,11.16-.46,0-4.49-2.65-8.87-5.94s-8.23-5.86-8.42-5.67c-.73.82,8.87,8,19,14.44,14.27,9,23.41,15.18,24.23,16.46.83,1.47-.09.92-10.69-6.21-4.85-3.21-9.7-6-10.7-6.22-2-.37-8-4.12-14-8.87a18.48,18.48,0,0,0-4-2.56c-1.28,0,14.91,12.34,23.14,17.65,4.57,3,8.41,5.94,8.41,6.58,0,1.28,7.22,6.31,8,5.58s3,.73,25,15c22.58,14.72,27.06,17.1,51.66,27.89,23.23,10.24,33.56,14.45,50.75,20.67,6.77,2.47,14.45,5.48,16.92,6.67,5,2.47,29.26,7.41,31.64,6.5.82-.28,6.76.54,13.25,1.92s13.63,2.56,15.92,2.65,9.05,1.09,15.08,2.19,13.54,2.1,16.74,2.47,5.94,1,6.21,1.37c.64,1.1-1.18,1-13.8-.55-11.62-1.46-13.81-1.64-13.17-1,.82.82,21.31,3.38,37.4,4.66,20.57,1.65,20.12,1.65,18.29.37-1.47-1,5.85-.64,19.2,1,3.75.46,9.33.83,12.44.92,4.29,0,5.57.27,5.57,1.37s-1.64,1.37-9,1.37c-5.76,0-9.69.46-11.34,1.28-1.28.73-2,1.46-1.55,1.83,1.55.91,31.82,1.74,40.87,1,8.69-.74,8.87-.83,4.57-1.47-2.46-.36-7.4-.91-10.88-1.19a41.69,41.69,0,0,1-6.58-.82c-.27-.18,3.66-.64,8.5-.91,22.22-1.47,25.42-1.56,23.59-.74a19.88,19.88,0,0,1-6.3.92c-2.47.09-4.21.36-3.84.73.91.91,36.11.27,38.4-.73,1.19-.46-2.56-.64-9.51-.37-14.36.64-12.07-.91,2.83-1.83,5.77-.36,10.89-.91,11.34-1.28a105.4,105.4,0,0,1,11.43-1.64c5.76-.55,15.46-1.83,21.4-2.84,6.68-1.09,11.8-1.46,13.26-1.09,1.28.45,2,.82,1.46.82-7.13.64-21.21,3.75-16.91,3.75.91,0,.91.27-.1,1.55-1.18,1.37-1,1.47,1,.92,1.28-.28,4.39-.83,6.86-1.19a16.93,16.93,0,0,0,5.67-1.46c.64-.46,3.66-1.1,6.86-1.28,15.08-.92,75.71-15.46,74.34-17.84-.83-1.28,3.93-2.92,8.87-3.1,3-.1,6.67-1.38,12.8-4.39,4.66-2.38,7.5-4,6.22-3.66a21.85,21.85,0,0,1-5,.73,13.4,13.4,0,0,0-4.58,1.1c-1,.45-4.93,1.83-8.68,3s-11.89,4-18.11,6.49c-11.61,4.66-32.82,10.88-37,10.88a94.81,94.81,0,0,0-12.07,2.28c-5.4,1.28-10.06,2.2-10.24,1.93s1.83-.83,4.48-1.47c3.56-.91,4.39-1.37,3.11-1.83-2.29-.73,4.57-2.74,22.4-6.4,8.14-1.74,22.4-5.85,37.4-10.88,13.35-4.48,25.69-8.5,27.43-8.78,4.94-1,24.42-8.5,31.09-11.88,3.29-1.74,10.88-5.49,16.92-8.33,12.52-5.94,23.68-12.25,38.86-21.94,8.87-5.67,18.56-12.8,14.9-10.88-3.11,1.55-.45-.83,7.23-6.59,1.32-1,2.51-1.83,3.58-2.6l2.76,2.17a61.29,61.29,0,0,1-7.17,5.37,20.51,20.51,0,0,0-3.93,2.65c0,.64,4.48-1.37,8-3.56,2.28-1.44,4-2.42,5-3l.75.59c-.33.34-.76.76-1.32,1.27-5.85,5.21-19.75,13.35-22.4,13.08-1.74-.19-5.49,1.82-13,6.85-5.94,3.84-15.18,9.33-20.57,12.17-10.52,5.3-12.62,6.76-10.34,6.76.83,0,6-2.47,11.62-5.48s10.7-5.49,11.15-5.49c1.19,0,18.93-10,30.18-16.92,5.81-3.63,11.42-7.45,16.23-11,53,41.5,58.47,45.06,64.75,45.67,9.13.88,21.5-7.17,47.9-31.12,32.69-29.65,116.82-115.74,187.41-191.92l21.79-23.47V926C1264.78,921.64,1264.09,919.68,1259.58,912.12Zm-714.46,307.7a1.85,1.85,0,0,1-1.74.1c-.73-.28-.46-.55.55-.55S545.48,1219.55,545.12,1219.82Zm35.93-12.25c-5.76.82-14.53.92-17.83,0a18.35,18.35,0,0,0-5.94-.18c-2.47.36-.82.82,6.86,1.74,5.58.73,11.7,1.55,13.71,1.92l3.66.73-4.11.09c-10,.27-50.75-3.84-77.64-7.77-18.92-2.75-57.6-12.35-61-15.09-.64-.46-7.59-3.11-15.54-5.76-29.26-9.88-35.75-12.35-36.3-13.63-.28-.64-6-3.75-12.9-7s-12.25-5.94-12.07-6.12a4.27,4.27,0,0,1,2.47.45,41.72,41.72,0,0,0,5.86,1.47c3.29.54,2.92.18-2.93-2.56-3.66-1.74-6.68-3.39-6.68-3.66,0-1.1,2.93-.46,11.16,2.56,10.52,3.84,13.53,5.21,13.53,6.22s-.91.91-5.85-.74c-2.38-.82-4.48-1.28-4.75-1.09s4,1.73,9.51,3.38,12.89,4.39,16.64,6,11.52,4.48,17.1,6.31c9.78,3.29,13.35,5.12,9.69,5.12-3.84,0,1.46,2.56,9.24,4.39,4.57,1.09,9,2.74,10.05,3.74,3.11,2.84,50.75,15.82,57.61,15.64,1.74-.09-2.47-2.74-4.39-2.74-.91,0-1.55-.28-1.28-.55s5.21.36,10.88,1.37a232.65,232.65,0,0,0,27.34,2.38c15.18.45,25.88,1.37,34.57,2.83,1.74.28,2.92.09,2.92-.55,0-.45-.91-.91-2-.91a7.71,7.71,0,0,1-3.47-.92c-2.2-1.46,2.38-1.09,9.6.64l6.4,1.56Zm589.24-381.4c-2.86,11.11-4.83,17.12-13.48,37.86a163.8,163.8,0,0,0-15.54,15.78c2-4.57,3.93-9.28,5.75-13.8,2.48-3.22,3.89-5.12,3.89-5.23a10.63,10.63,0,0,0-1.31-1.26c2.57-6.62,4.63-12.29,5.61-15.61,1.19-4,2.56-6.85,3.75-7.59,1-.64,1.82-.73,1.82-.36,0,2.56-2.37,12.89-4.66,20.39-1.46,4.85-2.65,9.14-2.65,9.6.18,2.84,10.52-24.87,16.09-42.88,1.83-6,3.48-10.61,3.75-10.43S1172.12,819,1170.29,826.17Zm-16.82-9.23c.46,0-1.65,7.22-4.57,16-2.2,6.6-4.94,13.78-7.5,19.93l-.31-.24-3.61-2.84c.17-.49.33-.94.44-1.3C1142.31,835.23,1151.28,816.94,1153.47,816.94Zm3.29-26.06c3.75-14.81,6.68-24.23,7.59-24.23.18,0,0,1.92-.46,4.29s-.73,7-.82,10.34c-.09,4.29-1.1,8.87-3.66,16.27-1.92,5.67-3.65,10.06-3.93,9.79s-1,0-1.74.55C1152.1,809.35,1152.1,809.26,1156.76,790.88Zm-48.59,124.63,7.12-9c-.36,1.1-.4,1.88.14,1.88a4.46,4.46,0,0,0,2.74-2c1.25-1.8,1.66-2,1.3-.88-4.93,5.93-9.92,11.89-14.58,17.42.82-1.74,1.45-3.16,1.76-4S1107.51,916.9,1108.17,915.51Zm-8.05,10.22c-1.32,2.67-2.59,5.15-3.7,7.2-7,8.24-12.21,14.27-13.55,15.61C1080.44,951,1084.16,946,1100.12,925.73Zm69.08-175.09c0-1.55.18-2.19.45-1.64a6.64,6.64,0,0,1,0,2.74C1169.38,752.66,1169.2,752.11,1169.2,750.64Zm9.87-59.43c.64-.92,1.83-8.41,3.66-24.69.46-4.57.91-8.69,1-9.14s.27-.37.55.27,0,8.69-.65,17.83-1.64,21.58-2.37,27.62-1.74,16.09-2.2,22.4-1.19,11.61-1.55,11.89C1176.7,738.12,1178.25,692.21,1179.07,691.21Zm-1.73-91.81c.36,3.2.64,8.51.73,11.71s-.19,5.67-.46,5.39-1.1-4.57-1.83-9.51c-1.1-7.4-1.1-9.42-.18-11.24C1176.7,593.64,1176.79,593.92,1177.34,599.4Zm-4.67-21.21a98.64,98.64,0,0,1,2.29,10.7c1,8.23-1,6.12-2.56-2.65C1170.29,574.62,1170.48,570.51,1172.67,578.19ZM1170.48,745a1.86,1.86,0,0,1,.09,1.73c-.28.73-.55.46-.55-.55S1170.2,744.61,1170.48,745Zm-13.26-256.59c0-1.92.09-1.92.82-.18a9.64,9.64,0,0,1,.82,2.56c.1.46-.27.46-.82.18A3.16,3.16,0,0,1,1157.22,488.39ZM1110,372.08a231.45,231.45,0,0,1,21.58,42.61c1.92,5.31,5.48,14.63,8,20.58,5.58,13.35,10.43,27,9.88,27.61-.28.28-.92-.55-1.38-1.73-6.21-16.37-15.63-38.41-22.12-51.94-4.48-9.24-8-17-7.78-17.28s1.92,2.56,3.66,6.12c3.48,6.86,5.21,8.78,2.84,3.11s-16.1-28.89-18.75-31.82c-2.38-2.56-5.49-7.77-5.49-9.24C1100.43,358.46,1104.18,363,1110,372.08ZM758.45,102.33c1.28.28,5.3,1.1,9,1.83,6.86,1.47,9.24,2.29,5.94,2.29-2.92,0-14-2.56-15.63-3.66C756.44,102,756.53,102,758.45,102.33ZM263.67,190.12c4.84-4.39,11.06-8.51,11.06-7.5,0,.33-7.72,6.69-14.62,12.19,1.11-1.5,2.21-3,3.31-4.47ZM171.18,328.6c-.39,0-1.87-1.27-3.44-2.94L165,322.81l2.46-3.24c7.14-9.38,38.33-51.37,69.13-93,6.1-4.84,14.15-11.53,20.78-17.38,1.5-1.32,3.16-2.72,4.94-4.19-9.47,12.8-20.93,28.36-33.2,45.12C197.59,293.26,171.47,328.6,171.18,328.6ZM877,927c0-.2,31.12-42.31,69.21-93.46s69-93.45,68.92-93.75-4.81-4-10.31-8.15c-8.74-6.57-10.31-7.36-11.29-6.08-.69.88-4.22,5.69-8,10.8s-7.26,9.42-7.85,9.42-28.08,37.11-61.26,82.46L856.1,910.55l-7.46-5.7c-4.12-3.24-8.93-7.06-10.8-8.54l-3.23-2.84,68.32-92c37.6-50.56,68.33-92.18,68.33-92.38,0-1.27-20.82-15.41-21.5-14.72-.4.49-4.22,5.4-8.35,10.9s-7.85,10.11-8.24,10.11-27.2,36.22-59.59,80.4-59.2,80.5-59.69,80.5-4.42-2.85-8.93-6.48l-8.25-6.58,5.11-6.87c17.77-24.05,112.4-151.38,119.47-160.8L929.93,684l-7.56-5.69c-4.12-3.14-8.94-6.68-10.6-7.85l-3.15-2.16-8,10.8c-4.41,6-8.34,10.79-8.83,10.79s-26.41,35.15-57.92,78-57.63,77.94-58.12,77.85c-1.67-.59-15.51-11.88-15.51-12.67s105.24-143,129.29-174.84c3.93-5.2,7.17-9.72,7.17-9.91,0-.59-18.46-14.43-20-15-.88-.3-3.73,2.85-8,8.64-3.63,5-7.76,10.21-9.33,11.58s-28.47,37.6-59.88,80.5-57.92,79-58.9,80.2L739,816.31l-7.07-5.5-7-5.5,2.26-3c1.27-1.57,31.12-41.82,66.36-89.34s64.5-86.88,64.89-87.47-2.94-3.82-9.33-8.54c-5.59-4.12-10.4-7.55-10.7-7.55s-4.22,4.71-8.64,10.6-8.24,10.4-8.54,10.4-26.7,35.34-58.5,78.73S704.73,788,704.43,788s-4.61-3.43-9.72-7.56-10.21-8.34-11.29-9.22c-2-1.48,0-4.23,66.37-93.56,37.69-50.65,68.32-92.18,68.13-92.28s-4.91-3.73-10.41-7.85-10.5-7.27-10.9-6.87-3.53,4.61-7,9.22a101.09,101.09,0,0,1-8.83,10.8c-1.47,1.38-28.86,38.19-60.87,82s-58.41,79.72-58.5,79.91-3.83-2.65-8.15-6.18l-7.86-6.58,10.11-13.45c5.5-7.36,36.23-48.79,68.33-92s58.61-79,59-79.62-3-3.83-9.33-8.54c-5.59-4.12-10.4-7.56-10.7-7.56s-4.22,4.72-8.64,10.51-8.24,10.5-8.54,10.5S722,590.91,693.93,629.2s-55.07,75.19-60,81.87l-8.84,12.07L618,717.55c-3.82-3-6.87-6.19-6.77-6.78s30.43-42,67.44-91.78,67.64-91,68-91.69c.49-.89-2.06-3.44-8.64-8.25a129.11,129.11,0,0,0-10.79-7.46c-.79-.39-4.13,3.24-8.94,9.82-4.22,5.69-8.15,10.4-8.64,10.5s-26.89,35.34-58.5,78.53-58.32,79.62-59.4,81L589.77,694l-6.77-5.6c-3.83-3.14-6.87-6.18-6.78-6.77s30.24-41.63,67-91.2,67.15-90.61,67.35-91.3-4.22-4.61-9.82-8.74l-10.21-7.65L683,492.84c-4.22,5.5-8.64,10.9-9.81,12s-28.18,37.3-59.79,80.49S555.51,664,555,664.14c-1.37.49-21.7-16.78-21.2-18.06.19-.59,30.43-41.43,67-90.81s67-90.21,67.35-90.8-3.63-4.22-9.62-8.54a127.22,127.22,0,0,0-10.7-7.56c-.2,0-4,4.81-8.44,10.8S631,470,630.61,470s-27,35.73-59,79.51S512.91,629,512.51,629c-1.27,0-22.38-18-22.09-18.85.2-.39,31.12-42.31,68.82-93.16s68.42-92.48,68.23-92.58C625,422.35,607,409.1,606.66,409.1c-.1,0-3.73,4.81-8,10.8s-8.15,10.8-8.74,10.8S562,467.41,529.1,512.18l-59.68,81.58-6-5.3c-3.24-2.85-5.89-5.6-5.79-6.19s29.45-40.25,65.18-88.45,65.18-88,65.28-88.35c.2-.59-18.06-14.73-20.32-15.71-.29-.2-4,4.62-8.34,10.51s-8.25,10.79-8.84,10.79S525,444.83,494.84,486s-55.56,75.88-56.54,77.16l-1.87,2.45-7.95-6.77a85.31,85.31,0,0,1-8-7.07c0-.2,30.23-41.13,67.24-90.9S555,370,555,369.54c0-.79-19.44-15.41-20.42-15.41-.39,0-4.22,4.9-8.44,10.79s-8.25,10.8-8.84,10.9-27.09,35.54-58.9,79-58.21,78.92-58.9,78.92-4.12-2.84-7.95-6.28c-5.4-4.91-6.58-6.48-5.79-7.56,5.89-7.36,134.88-181.71,134.88-182.3-.1-.39-4.71-4.12-10.31-8.24l-10.21-7.46-8.05,10.7c-4.32,5.89-8.34,10.7-8.73,10.7s-27.2,36-59.49,80-59.1,80-59.69,80c-1.47-.1-9.62-7.85-9.23-8.73.2-.5,29.94-40.65,66.07-89.34s65.87-88.84,66.07-89.23-4.42-4.23-10.11-8.45c-9.13-6.77-10.51-7.56-11.59-6.08-.69.78-4.22,5.69-8.05,10.8s-7.26,9.42-7.85,9.42-26.41,34.75-57.43,77.16-56.84,77.46-57.43,77.95-3.53-1.48-7.17-4.72l-6.28-5.59,64.5-86.88c35.54-47.81,66.56-89.43,68.91-92.57s4.22-5.89,4-6S454.1,277.85,449,274s-9.82-7.17-10.51-7.56-3.63,2.85-7.65,8.44a143.84,143.84,0,0,1-9.82,12c-1.77,1.57-28.67,37.8-59.88,80.5s-57.53,78.44-58.41,79.42c-1.77,1.76-2.16,1.57-14.63-9.23s-16.3-14.53-9.43-9.42c1.87,1.37,4.91,3.63,6.68,4.9l3.14,2.36,71.17-95.81c39.17-52.62,71.27-96,71.37-96.31.2-.49-18.55-14.82-20.32-15.61-.39-.09-3.53,3.64-6.87,8.35a121.4,121.4,0,0,1-9.42,11.68c-1.67,1.57-30.63,40.45-64.21,86.39s-61.45,83.74-61.94,84.23c-1,1.18-12.86-9.23-12.27-10.8.29-.69,31-42.41,68.42-92.67s67.74-91.5,67.54-91.69-5-3.73-10.6-7.95l-10.21-7.66-1.77,2.36c-1,1.27-4.61,6.18-7.95,10.89s-6.58,8.64-7.17,8.64c-.78,0-30.92,40.84-111.52,150.79l-7.36,10.11-7.46-7.07-7.56-7.07L289.08,284c37.7-50.75,68.33-92.57,67.93-93-2.25-1.87-19.73-14.63-20.12-14.63s-4.22,4.81-8.64,10.8-8.44,10.8-8.84,10.8-26.8,35.44-58.6,78.73-58.22,79.42-58.9,80.2c-1,1.38-1.87.89-6.09-3.34-2.75-2.65-5-5.2-5-5.59s30-41.33,66.86-90.81,67.05-90.51,67.24-91.1c.16-.36-1.23-1.73-3.34-3.51,13.91-9,25.54-15.65,30.06-16.85,1.83-.55,10.61-4.39,19.48-8.69s18.93-8.69,22.31-9.78c8.6-2.75,19.39-7,22.13-8.6l2.28-1.37-2.28.64c-4.39,1.19-1.28-.36,7.31-3.66,4.76-1.83,11.62-4.57,15.09-5.94a70.17,70.17,0,0,1,12.35-3.75A38.23,38.23,0,0,0,459,102a49.88,49.88,0,0,1,16.64-5.58c3.39-.55,6.59-1.37,7.14-1.83,1.28-1,10.7-3.75,11.24-3.2.28.18-1.37,1.19-3.56,2.2-5.21,2.37-3.75,2.37,4.48.09,9-2.47,11.34-2.2,3.38.45-3.47,1.19-6.22,2.11-5.94,2.2,1.19.27,16.27-2.84,28.34-5.76,15-3.57,27.16-5.67,28.08-4.76.27.28-.55.55-2,.55s-2.37.28-2,.55,2.65.28,5.31-.09c2.83-.37,4.29-.91,3.56-1.37-1.37-.82,1.37-1.46,9.6-2.29,3-.27,7-.73,9-1,2.92-.46,3.29-.28,2.83,1s-.18,1.47,2.93,1c17.55-2.65,51.93-3.2,69.4-1,6,.73,19.2,2,29.26,2.75,24.23,1.92,32.19,3.29,48,8.68,7.31,2.38,17.37,5.49,22.4,6.86s15.91,4.3,24.05,6.58c14.81,4,18.56,4.58,13.07,1.65-1.55-.73-2.83-1.65-2.83-1.92,0-1.65,16,4.66,21.76,8.59,1.37.92,9.51,4.49,18,7.87s25.23,11,37,16.73,25.78,12.26,31.09,14.45c12.8,5.39,21.21,10.33,35.93,20.85,7.5,5.48,14.09,9.42,17,10.42,4.67,1.47,7.5,3.84,16.64,13.72a95.86,95.86,0,0,0,9.15,7.77c6,4.66,24.78,21.86,20.66,19-.82-.64-1.83-1-2-.73s2.93,3.11,7.13,6.4,10.79,8.69,14.82,11.89c8.78,7,13.8,12.52,23.86,25.87,4.12,5.49,11.34,14.18,16.1,19.21,11.06,11.79,27.06,30.81,30.26,36.12,1.83,3-1.19.27-10.88-9.61-12-12.25-14.9-14.53-5.76-4.57,3.93,4.3,21.67,30.45,30.08,44.35,7.23,11.89,7.78,12.53,5.49,6.4-1-2.74-4.85-9.51-8.59-15.09-9.24-13.89-11.89-19.11-7.78-15.45,3.11,2.74,10.52,14.17,16.1,24.78,2.83,5.4,6.49,11.89,8,14.45,6.59,10.24,21.49,42.06,31,66,5.49,13.9,15.36,42.43,14.91,43-.19.09-4.85-5.77-10.34-13.17-8.68-11.71-16.64-25.79-15.27-27.07.73-.73-5.39-15-11.34-26.24-9.69-18.38-16.64-32.37-16.36-32.74s3.29,4.57,10.15,17.47c2.83,5.48,5.39,9.69,5.67,9.51s-1.1-4-2.93-8.42-3.38-8.86-3.47-10c-.1-1.92-6-12.35-8.69-15.46a4.87,4.87,0,0,0-2.93-1.55c-1.83,0-3.11-1.83-14.45-20.3-4.84-7.77-10.05-15-12.43-17.19s-4.21-4.66-4.21-5.67c0-1.92-1.55-4.11-12.34-17.65-8.41-10.42-10-12.8-10.79-16-.73-3-12.8-15.54-14.91-15.54a6.68,6.68,0,0,1-3.47-1.65c-1.1-.82-.37.27,1.55,2.56s7.32,9,11.89,14.81,11.61,14.82,15.55,19.66c7.68,9.6,30.35,43.16,33.28,49.2,1,2,4.39,8.14,7.5,13.71,7.59,13.35,17.55,33.93,25.78,53,3.66,8.5,7.32,16.46,8.14,17.56s3.11,5.76,5,10.51c4,9.88,5.12,11.52,7.87,13,1.46.73,2.92,3.38,5.12,9.69,1.64,4.75,3,9.6,3,10.79a30,30,0,0,0,2.38,7.95c1.28,3.2,3.11,8.87,4.12,12.53a49.28,49.28,0,0,0,2.56,7.59c3.1,4,11.06,37.31,8.5,35.75-.55-.27-1.19-1.83-1.55-3.29s-.92-2.56-1.28-2.28-1.65-4.21-2.84-9.88c-1.74-8.87-6.77-22.59-7.86-21.49-.19.28.45,2.84,1.37,5.85s2.47,10.52,3.29,16.83c2.83,22.31,3.47,26.61,4.21,27.06.45.28,1.19-.91,1.64-2.56l.83-3,.09,3.2c.18,4.75,1,7.22,2.37,6.76,1.56-.64,2.38,4.12,2.84,16.1.18,5.3.64,16,1.1,23.77s.45,17,.18,20.58l-.46,6.4-.55-6.86c-.45-4.94-.55-3.75-.27,4.3.18,7-.09,11.43-.73,11.79-.83.46-.92,8.87-.64,45.17a38.46,38.46,0,0,1-.64,6.4l-.64,3.2-.64-2.74c-.55-2.19-.73-1.83-.83,2.29,0,3.75.19,4.66.92,3.66,1.1-1.65.55,6.21-1.56,21-1.82,12.62-3.29,17.46-2.65,8.68.28-3.56.73-7.86.92-9.6.45-2.83.36-3-.46-1-.55,1.28-1.37,7.22-1.83,13.25-.91,11.07-3.84,27.35-5.39,29.27-1.56,2.1-3.94,10.6-7,25.69a295.47,295.47,0,0,1-7.68,28.8c-2.31,6.83-5.41,16.2-7.22,21.73l-1.16-.91-7.66,9.72c-4.22,5.4-8,9.81-8.64,9.81s-2,1.28-3,2.75-25.92,33.58-55.37,71.37-53.6,68.92-53.7,69c-.49.79-8.24,1.38-8.24.69,0-.39,29.15-39.95,64.79-88S1124.4,833,1124.4,832.8c0-.79-19.44-15.32-20.32-15.32-.49,0-3.73,3.83-7.17,8.54a134,134,0,0,1-9.42,11.59c-1.67,1.57-28.77,38.09-60.18,81s-57.62,78.24-58.12,78.34c-1.47.59-11.78-7.66-11.09-8.84.39-.59,30.83-41.62,67.74-91.39l67.05-90.32-10.21-7.66A128.86,128.86,0,0,0,1072,791c-.2,0-4,4.91-8.44,10.8s-8.45,10.79-8.84,10.79-27.19,36-59.39,80-59,80-59.39,80c-1,0-18.66-13.65-18.66-14.33,0-.3,30.53-41.63,67.84-91.89s67.93-91.79,68.23-92.47-2.36-3.44-6.68-6.48c-3.93-2.95-8.54-6.29-10.31-7.56l-3-2.36-7.66,10.11a149.69,149.69,0,0,1-10.31,12.57c-1.47,1.37-28.86,38.19-60.86,82S896.26,941.77,896.16,942,877,927.43,877,927Zm159.87-635.42L1034,289a26.82,26.82,0,0,1-3-3c0-.74.73-.1,3.29,2.65ZM914.81,1115.86a40.33,40.33,0,0,1,3.81-3l1,.79a42.21,42.21,0,0,0-3.9,2.53l-5,3.57Zm-6.95,5.21c1.92-1.56,2.38-1.74,2.38-1a5.46,5.46,0,0,1-2,1.37C906.22,1122.44,906.22,1122.35,907.86,1121.07Zm-180.78,97.84a1.83,1.83,0,0,1-1.73.09c-.73-.27-.46-.55.55-.55S727.45,1218.64,727.08,1218.91Zm147-63.92c-8.5,4.21-17.56,9.06-20.12,10.52-4.29,2.65-12.8,5.58-19.2,6.67-2.19.37-1.83,0,1.83-1.83,2.56-1.18,6.67-3.1,9.14-4.2s4-2.2,3.3-2.47c-.92-.27-.64-.73.91-1.65s1.74-1.19.73-1.28c-.73,0-3.38,1.28-5.94,2.84a136.23,136.23,0,0,1-12.71,6.86c-4.48,2.19-9.6,4.93-11.34,6-7,4.39-29,13.63-41.79,17.47-26.88,8-30.36,8.87-34.75,8.87-2.46,0-11.33,1.46-19.75,3.1-24.32,5-35,6.77-50.56,8.33-13.81,1.37-58.43,2.74-53.5,1.64a8.2,8.2,0,0,0,3.2-1.19c1.47-1.19,31.09-2.83,33.56-1.92,2.65,1,37.4-3.65,43.25-5.85,4.39-1.55,17.38-3.2,20.58-2.56,2.65.46,20.48-3.47,39.32-8.59,13.35-3.75,14.35-5.22,1.37-2.2-10.88,2.65-11.16,2.38-2.74-1.65,7.59-3.65,33.46-11.15,37.21-10.88,2.2.19,19.39-5.57,18.75-6.31-.19-.18-1.47.1-2.84.64s-2.28.55-2,.1,4.39-2.29,9-4.21c8.23-3.29,54.41-23.68,64.74-28.62A34.5,34.5,0,0,0,892,1137c1.74-1.83,8.6-6.49,15.09-10.43a160.39,160.39,0,0,0,15.58-10.6l4.75,3.73c-.06.28.11.42.5.4l3.1,2.43C915,1133.21,896.33,1143.89,874.12,1155Z" transform="translate(-8.47 -49.01)"/></svg>