<?xml version="1.0" encoding="utf-8"?>
<!-- Generator: Adobe Illustrator 26.0.0, SVG Export Plug-In . SVG Version: 6.00 Build 0)  -->
<svg version="1.1" id="Logo" xmlns="http://www.w3.org/2000/svg" xmlns:xlink="http://www.w3.org/1999/xlink" x="0px" y="0px"
	 viewBox="0 0 1094.4 1082.5" style="enable-background:new 0 0 1094.4 1082.5;" xml:space="preserve">
<style type="text/css">
	.st0{fill:none;stroke:#67150A;stroke-width:5;stroke-miterlimit:10;}
	.st1{fill:#69430F;}
	.st2{font-family:'Algerian';}
	.st3{font-size:811.2048px;}
	.st4{letter-spacing:-29.2;}
	.st5{fill:#7F5615;}
</style>
<g id="circle">
	<path class="st0" d="M14.4,541.2c0,297.8,241,538.7,538.7,538.7"/>
	<path class="st0" d="M553.1,1080c297.8,0,538.7-241,538.7-538.7"/>
	<path class="st0" d="M1091.9,541.2c0-297.8-241-538.7-538.7-538.7"/>
	<path class="st0" d="M922.3,172.4C711.7-38.1,371-38.1,160.4,172.4"/>
	<path class="st0" d="M160.4,172.4c-210.6,210.6-210.6,551.3,0,761.9"/>
	<path class="st0" d="M540.4,1071.8c297.8,2.3,540.6-236.8,542.9-534.5"/>
</g>
<text transform="matrix(0.9256 0 0 1 193.4598 804.5579)" class="st1 st2 st3 st4">H</text>
<g id="R">
	<path id="R_x5F_kontur" class="st5" d="M462.7,312.4c58.6-36.2,121.6-54.3,189-54.3c52.4,0,95.6,12.1,129.5,36.4
		c34,24.3,51,55.2,51,92.7c0,30.6-11.1,57.8-33.4,81.4c-22.2,23.6-52.6,40.7-91.2,51.3c17,50.2,40.2,99,69.5,146.6
		c29.3,47.5,58.6,84,88,109.3l-5.6,2c-36.8,13.5-72.9,32.5-108.2,57l-5.6,4l-1.9-12.7c-15.8-102.2-37.9-188.8-66.3-259.8l-1.5-4
		c-17,8.5-39.9,15.2-68.6,20.2l-3,0.4v148.1l60,73.5h-190l-9.2-10.7h178.6l-49-60V574.2l7.8-1.2c28.2-3.2,51.8-9.1,70.8-17.8
		c0,0,0,0,0,0c-1.5-3.2-2.3-5.1-2.6-5.9l-3.7-11.5c-0.2-0.8-0.9-2.4-1.9-4.7c0,0,0,0,0,0c-15.3,4.8-44.2,9.9-86.7,15.4c0,0,0,0,0,0
		l-3.3,0.6l0,180.2l44.4,42.8H451.2l50.1-46.1V592.9l-3,0.4c-14.3,3.4-27.3,7.3-38.9,11.5l-3,1.2l-3.3-7.9
		c10.9-4.5,19.4-7.5,25.6-9.1l19.6-5.1l3-0.8v-20.6c-14.6,0-32.7,3.4-54.5,10.3l-4.1,1.6c0.5-3.7,3-12.3,7.4-25.7c0,0,0,0,0,0
		c0.5-1.1,2.2-7,5.2-17.8c0.2-0.8,0.6-2,1.1-3.6c0,0,0,0,0,0c11.1,0.8,19.8,1.2,25.9,1.2c6.7,0,12.8-0.4,18.5-1.2V332.2
		c-11.4-7.4-23.1-13.6-35.2-18.6L462.7,312.4z M575.5,316.6l-0.1,199c7.2,0,13.2-0.6,19.6-1.9V321.1c13.6-4,29.9-8.3,48.9-8.3
		c48.2,0,80.9,16.9,98.2,50.7c0,0,0,0,0,0c-18.3-15.8-34.3-26.7-48.2-32.7c-13.8-5.9-30.4-8.9-49.7-8.9c-15.1,0-28.3,1.6-39.7,4.8
		v187l4.1-0.8c48.7-9.5,84.8-24.5,108.4-45c23.6-20.5,35.4-47.1,35.4-79.8c0-29.3-10.6-53.5-31.9-72.7
		c-21.3-19.1-48.1-28.7-80.4-28.7C614.3,286.7,593.3,306.3,575.5,316.6z M753.7,539.8C753.7,539.8,753.7,539.8,753.7,539.8
		c15.6,54.4,43.1,107.6,82.7,159.6c24.7,32.5,56,61.7,93.8,87.5c0,0,0,0,0,0c-56.6,16.1-109.7,40.7-159.4,73.7l-3.3,2.4l-7.4-6.3
		c47.2-33,97.5-57.3,150.8-72.9c0,0,0,0,0,0C839.7,733.1,783.7,652,742.9,540.6l-2.2-6.7c75.6-30.6,113.4-77.4,113.4-140.2
		c0-25.9-9.8-54.1-29.3-84.8c0,0,0,0,0,0c25,24.3,37.4,55.2,37.4,92.7C862.3,462.3,826.1,508.4,753.7,539.8z"/>
</g>
</svg>
